<svg width="208" height="187" viewBox="0 0 208 187" fill="none" xmlns="http://www.w3.org/2000/svg">
<g clip-path="url(#clip0_11_5272)">
<path d="M59.2775 153.596C63.4849 153.596 67.6861 151.954 70.8178 148.694C76.888 142.375 76.6409 132.374 70.2685 126.355L41.5873 99.2662C35.2134 93.2502 25.1277 93.4906 19.0591 99.8094C12.989 106.13 13.2345 116.129 19.6069 122.15L48.2912 149.238C51.3753 152.151 55.3295 153.596 59.2775 153.596Z" fill="#09CE81"/>
<path d="M66.0164 57.1584C69.3741 69.5734 62.0306 82.3539 49.6173 85.7101C37.2055 89.0679 24.4208 81.7243 21.0645 69.3137C17.7083 56.8987 25.0503 44.1152 37.4637 40.7589C49.877 37.4011 62.6587 44.7433 66.0164 57.1584Z" fill="#FF62BA"/>
<path d="M162.618 39.8316C166.305 39.8054 170.013 41.0885 172.992 43.7229C187.405 56.4735 195.814 74.2185 196.668 93.6957C197.51 112.966 190.834 131.651 177.866 146.312C172.192 152.723 162.394 153.325 155.98 147.652C149.569 141.978 148.969 132.18 154.642 125.768C162.256 117.159 166.182 106.25 165.69 95.0518C165.209 84.0553 160.506 74.0742 152.447 66.9469C146.034 61.275 145.434 51.4768 151.107 45.0627C154.146 41.629 158.367 39.862 162.618 39.8316Z" fill="#5ECEF7"/>
<path d="M167.886 0.819824C175.856 0.819824 182.344 7.29949 182.344 15.2667C182.344 23.2284 175.856 29.7081 167.886 29.7081H124.842V136.246C124.842 145.843 117.081 153.596 107.48 153.596C97.8784 153.596 90.1171 145.843 90.1171 136.246V29.7081H46.814C38.8437 29.7081 32.362 23.2284 32.362 15.2667C32.362 7.29949 38.8437 0.819824 46.814 0.819824H167.891H167.886Z" fill="white"/>
</g>
<defs>
<clipPath id="clip0_11_5272">
<rect width="207.339" height="185.514" fill="white" transform="translate(0.631836 0.819824)"/>
</clipPath>
</defs>
</svg>
